<svg xmlns="http://www.w3.org/2000/svg" width="1135" height="392"><path d="M0 0 C2.3151362 0.54365446 4.61142237 1.13677417 6.90894127 1.75056648 C7.77646523 1.97579428 8.64398918 2.20102207 9.53780174 2.43307495 C12.39869368 3.17771595 15.25666959 3.93296385 18.11475182 4.68831062 C20.15211086 5.22084657 22.1896466 5.75270692 24.22734642 6.28393745 C29.68662435 7.70910676 35.14347195 9.14338119 40.59992027 10.57933998 C46.31891065 12.08262603 52.04016669 13.57723785 57.76123619 15.07258797 C66.89920648 17.46200253 76.03602123 19.85578002 85.17188072 22.25325203 C95.58529871 24.98577371 106.00109391 27.7090155 116.41943932 30.42268562 C117.11537697 30.60397892 117.81131462 30.78527222 118.52834129 30.97205925 C121.26139491 31.68401689 123.99445643 32.39594411 126.7275486 33.10775375 C133.40904739 34.84805863 140.0894874 36.59241239 146.76988792 38.33692741 C160.28781174 41.86693959 173.80720508 45.39129145 187.32715034 48.91355324 C193.58098737 50.54295405 199.83467045 52.17294564 206.0883522 53.80294228 C211.18042662 55.13011836 216.27259427 56.45693426 221.36499596 57.78285408 C223.31218102 58.28991068 225.25936527 58.79697038 227.20654869 59.30403328 C228.62608691 59.67359894 228.62608691 59.67359894 230.07430267 60.05063057 C234.66904027 61.24745703 239.26291437 62.44742458 243.85495567 63.65455818 C245.58917213 64.11033035 247.32339442 64.56608034 249.05762291 65.02180672 C249.88777853 65.24005104 250.71793415 65.45829536 251.573246 65.68315315 C256.03520724 66.85266677 260.5020681 67.99696715 264.97977924 69.10465336 C266.84969516 69.56835151 268.717359 70.0411026 270.58492088 70.51419258 C272.7314943 71.0574599 274.88177638 71.58642355 277.03655052 72.09619331 C282.95984606 73.61775164 287.86979773 75.56140454 291.68897057 80.53596687 C294.12929416 85.33445355 295.06822052 89.08253682 295.0930233 94.44587898 C295.10331818 95.42300095 295.10331818 95.42300095 295.11382103 96.41986275 C295.1319687 98.55124028 295.12826923 100.6818732 295.12256432 102.81331062 C295.12713197 104.30872013 295.13243927 105.80412753 295.13844872 107.29953194 C295.14735619 110.42554976 295.14498394 113.55131179 295.13501549 116.6773243 C295.1235292 120.66631816 295.14374315 124.65442629 295.17293262 128.64330387 C295.19135454 131.72930619 295.19099034 134.81509857 295.1852951 137.90114212 C295.18514262 139.37102755 295.19112651 140.84092787 295.20358658 142.3107605 C295.27074949 151.53136087 294.97060735 158.45097143 288.79443932 165.78596687 C288.16150963 166.36346687 287.52857994 166.94096687 286.87647057 167.53596687 C284.26471461 170.01354088 281.78257453 172.49021726 279.43897057 175.22346687 C276.27122632 178.90705938 272.99266197 182.47493744 269.68897057 186.03596687 C268.65224019 187.15941381 267.61577642 188.28310683 266.57959557 189.40706062 C264.84938033 191.28372219 263.11072132 193.15011414 261.36084557 195.00862312 C260.72662682 195.69827156 260.09240807 196.38792 259.43897057 197.09846687 C258.89756432 197.67725594 258.35615807 198.256045 257.79834557 198.85237312 C256.32215639 200.75660708 256.32215639 200.75660708 256.68897057 204.53596687 C261.27027184 206.76932796 265.85381228 208.99803803 270.43897057 211.22346687 C271.13014977 211.55899574 271.82132896 211.89452461 272.53345299 212.24022102 C283.85859213 217.73263891 295.23927656 223.09196766 306.687994 228.32185555 C318.29260772 233.6502757 318.29260772 233.6502757 322.68897057 236.53596687 C323.75147057 239.59846687 323.75147057 239.59846687 323.68897057 242.53596687 C323.02897057 243.52596687 322.36897057 244.51596687 321.68897057 245.53596687 C319.72052002 245.91907692 319.72052002 245.91907692 317.26138878 245.93037605 C316.33044899 245.94172585 315.3995092 245.95307564 314.44035912 245.96476936 C313.41590187 245.96183876 312.39144463 245.95890816 311.33594322 245.95588875 C310.25943001 245.96435829 309.18291679 245.97282784 308.07378197 245.98155403 C304.5000802 246.00503419 300.92680627 246.00594346 297.35303307 246.00471687 C294.87682483 246.01181237 292.40061825 246.01951045 289.92441368 246.02778816 C284.72739661 246.04125876 279.5305315 246.04279039 274.33350182 246.03694344 C267.66591388 246.0295748 260.99916559 246.06161871 254.3316803 246.10206032 C249.21534849 246.12788297 244.09919325 246.13081956 238.98280525 246.12716866 C236.52435413 246.12886535 234.06589532 246.1385603 231.60750771 246.15631294 C228.17143563 246.1783915 224.73685297 246.16885537 221.30078697 246.15120125 C220.28037819 246.16446449 219.25996941 246.17772774 218.20863914 246.1913929 C211.30829517 246.10881092 211.30829517 246.10881092 208.13046837 243.16948128 C207.65477409 242.30042152 207.17907982 241.43136177 206.68897057 240.53596687 C206.13596275 239.62798347 205.58295494 238.72000008 205.01318932 237.78450203 C204.47307213 236.80787605 203.93295494 235.83125008 203.37647057 234.82502937 C202.47541588 233.20467781 202.47541588 233.20467781 201.55615807 231.55159187 C200.93998619 230.43268562 200.32381432 229.31377937 199.68897057 228.16096687 C198.4600026 225.94471084 197.23084111 223.72856211 196.00147057 221.51252937 C195.46135338 220.53364754 194.92123619 219.5547657 194.36475182 218.54622078 C192.49867051 215.19412543 190.59755038 211.86402693 188.68897057 208.53596687 C188.66915123 209.55021736 188.64933189 210.56446785 188.62891197 211.6094532 C188.55284034 215.37240111 188.46412566 219.13496311 188.37158775 222.89753914 C188.33330438 224.52604236 188.29845033 226.15462997 188.26709557 227.78328133 C188.22143055 230.12432702 188.1634398 232.46479217 188.10303307 234.80549812 C188.09148186 235.53372276 188.07993065 236.2619474 188.0680294 237.01223946 C187.96018545 240.70558061 187.79012781 242.38423101 185.68897057 245.53596687 C183.10334392 245.84369277 180.75497703 245.95585277 178.16577721 245.94001961 C177.39001839 245.94688286 176.61425957 245.95374611 175.8149929 245.96081734 C173.24285293 245.97916415 170.67131837 245.97523667 168.09912682 245.96956062 C166.31555036 245.97411884 164.53197567 245.97942333 162.74840355 245.98544502 C159.00659624 245.99439174 155.26500218 245.99193557 151.52319908 245.9820118 C146.72314011 245.97052329 141.9238169 245.99072357 137.12385464 246.01992893 C133.43928395 246.03825806 129.75489062 246.03800502 126.0702858 246.03229141 C124.30041472 246.03213778 122.53053193 246.03821692 120.76070404 246.05058289 C118.28718359 246.06542862 115.81503537 246.05486424 113.34155846 246.03767586 C112.60742729 246.04734383 111.87329613 246.0570118 111.11691856 246.06697273 C106.13788186 245.99436449 106.13788186 245.99436449 104.00125408 243.81258583 C102.47665664 241.16763344 102.3120121 239.64444548 102.30801964 236.60885811 C102.29956017 235.61771507 102.29110069 234.62657204 102.28238487 233.60539436 C102.28845757 232.52424355 102.29453026 231.44309273 102.30078697 230.32917976 C102.29553001 229.1857058 102.29027306 228.04223183 102.2848568 226.86410713 C102.27163767 223.07880742 102.28040262 219.29392722 102.29053307 215.50862312 C102.28851275 212.88072822 102.28560167 210.25283386 102.28183556 207.62494087 C102.27637894 202.11452366 102.28356627 196.60422709 102.29785728 191.0938282 C102.31417564 184.72832053 102.30890105 178.36310127 102.29237807 171.99760062 C102.27710835 165.86905353 102.27874444 159.74063401 102.28752327 153.61207581 C102.28952588 151.0065418 102.28706389 148.40100044 102.28008461 145.79547501 C102.27247245 142.15416747 102.28407239 138.5134147 102.30078697 134.87214851 C102.29471428 133.79302193 102.28864159 132.71389534 102.28238487 131.60206795 C102.35918574 122.57819496 102.35918574 122.57819496 105.68897057 118.53596687 C111.05468921 119.03863511 115.17251219 120.44834543 119.95020103 122.9700489 C120.63902367 123.32292976 121.3278463 123.67581062 122.03754234 124.03938484 C123.52328216 124.80171601 125.00673995 125.56850814 126.48810005 126.33931541 C128.83783638 127.56023944 131.1947284 128.76614302 133.55423546 129.96806526 C140.25828639 133.38556247 146.95128799 136.82415711 153.63281822 140.28547859 C157.72924699 142.40629382 161.83626907 144.5052576 165.95054054 146.59123039 C167.51039998 147.38754277 169.06607384 148.19211241 170.61725044 149.00520897 C172.79130618 150.14422714 174.97782203 151.25494197 177.16895103 152.3606739 C178.1137986 152.86865013 178.1137986 152.86865013 179.07773399 153.3868885 C186.8225514 157.20901618 194.43224962 154.59714832 202.18897057 152.03596687 C202.90311119 151.81038094 203.61725182 151.584795 204.35303307 151.35237312 C207.79356011 150.44120005 207.79356011 150.44120005 210.68897057 148.53596687 C210.62338417 146.69954793 210.48491999 144.86558771 210.31397057 143.03596687 C210.21471275 141.95831062 210.11545494 140.88065437 210.01318932 139.77034187 C209.60395156 135.68782551 209.164428 131.61131633 208.68897057 127.53596687 C208.00463951 127.27493172 207.32030846 127.01389656 206.6152401 126.74495125 C203.2897643 125.37103533 200.0825977 123.80447979 196.86865807 122.19221687 C196.21052116 121.86362679 195.55238426 121.5350367 194.87430382 121.19648933 C193.47691034 120.49813218 192.08001938 119.79876872 190.68359947 119.09846687 C188.62043966 118.06427297 186.55524784 117.03423522 184.48975182 116.00471687 C176.2655469 111.89469745 168.10738748 107.67162383 159.97968102 103.37414742 C151.82119975 99.06506501 143.61061702 94.86030714 135.39307213 90.66523933 C130.90958336 88.37617301 126.42817444 86.08304223 121.94678307 83.78987312 C121.06008934 83.33619362 120.17339561 82.88251411 119.25983238 82.41508675 C110.56978506 77.96679539 101.89768966 73.4844289 93.22949791 68.99373055 C84.30554817 64.37066901 75.37420276 59.76217831 66.43897057 55.16096687 C65.75053062 54.8064344 65.06209068 54.45190193 64.35278893 54.08662605 C60.86140721 52.28867267 57.36993889 50.49088758 53.87842369 48.69319344 C49.72645757 46.55537772 45.57485478 44.41685721 41.42334557 42.27815437 C40.74230263 41.92734306 40.06125969 41.57653175 39.35957909 41.2150898 C35.95037385 39.45890747 32.54144749 37.70218765 29.13306236 35.94441414 C22.66223826 32.60801308 16.18858568 29.27741324 9.70609093 25.96373177 C6.6284298 24.39013291 3.55219902 22.81374948 0.47607994 21.23713875 C-0.99732569 20.48297239 -2.47143869 19.73018629 -3.94628334 18.97883797 C-5.98500916 17.94011859 -8.02129791 16.89676305 -10.05712318 15.85237312 C-11.21913246 15.25884041 -12.38114174 14.66530769 -13.57836342 14.05378914 C-16.31102943 12.53596687 -16.31102943 12.53596687 -18.31102943 10.53596687 C-18.23311679 6.40659659 -17.62198094 4.01744018 -15.37352943 0.53596687 C-10.49124111 -2.65246632 -5.53597219 -1.11157151 0 0 Z " fill="#EE4323" transform="translate(56.3110294342041,93.46403312683105)"></path><path d="M0 0 C4.05656988 0.31717999 7.07060306 1.68727252 10.63310242 3.50628662 C11.68057396 4.02334167 11.68057396 4.02334167 12.74920654 4.55084229 C15.04580751 5.6885257 17.33326236 6.84337121 19.62065125 7.99945068 C21.21876723 8.79775723 22.81726875 9.59529241 24.4161377 10.39208984 C27.76124036 12.06247729 31.10196077 13.74124303 34.43974304 15.4262085 C38.7162651 17.58437145 43.00232602 19.72273362 47.29175854 21.85509872 C50.59229379 23.49827291 53.88790546 25.15112559 57.18207741 26.80701447 C58.76070502 27.5992511 60.34076707 28.38863613 61.92227745 29.17510223 C64.13170246 30.27581616 66.33425137 31.38922468 68.53544617 32.50628662 C69.18848724 32.8285321 69.84152832 33.15077759 70.51435852 33.48278809 C74.07007489 35.30660803 76.34999943 36.82153354 78.3901825 40.26507568 C78.76770592 42.96376038 78.76770592 42.96376038 78.77113342 46.11004639 C78.7795929 47.30457428 78.78805237 48.49910217 78.79676819 49.72982788 C78.7906955 51.03696747 78.7846228 52.34410706 78.77836609 53.69085693 C78.78243202 55.08395804 78.78777402 56.47705593 78.79429626 57.87014771 C78.8079733 61.65113099 78.80266972 65.43186871 78.79315901 69.21285629 C78.78556438 73.16947848 78.79260747 77.12607963 78.7973175 81.08270264 C78.80277564 87.72719091 78.79558196 94.37157916 78.78129578 101.01605225 C78.7649691 108.69827319 78.77025757 116.38025528 78.78677499 124.06247044 C78.80038825 130.6579089 78.80231032 137.25327544 78.79445899 143.84872341 C78.78978157 147.78805392 78.78915946 151.72727216 78.79906845 155.66659546 C78.80773355 159.37011523 78.80172484 163.07332701 78.78438568 166.77681351 C78.77852559 168.78464586 78.78744029 170.79250425 78.79676819 172.80032349 C78.78830872 173.99485138 78.77984924 175.18937927 78.77113342 176.42010498 C78.77000235 177.45837936 78.76887127 178.49665375 78.76770592 179.56639099 C78.33189269 182.68175393 77.6179213 184.06344256 75.3901825 186.26507568 C72.73267023 186.65775347 70.48709237 186.79212792 67.82939148 186.75091553 C67.06163391 186.75471222 66.29387634 186.75850891 65.50285339 186.76242065 C62.96357958 186.7698339 60.42544844 186.7484359 57.88627625 186.72601318 C56.12415705 186.72362934 54.36203528 186.72272331 52.59991455 186.72323608 C48.90687655 186.72010688 45.21422644 186.70353119 41.52128601 186.67669678 C36.78074178 186.64269176 32.04062349 186.6350688 27.29997158 186.63658714 C23.66177279 186.63604409 20.02366765 186.6250878 16.38549995 186.61058426 C14.63714876 186.60420767 12.88878693 186.60027536 11.14042473 186.59879684 C8.70062438 186.59447431 6.2612815 186.57699717 3.82157898 186.55560303 C2.73137199 186.55696259 2.73137199 186.55696259 1.61914062 186.55834961 C-3.38085934 186.49403385 -3.38085934 186.49403385 -5.6098175 184.26507568 C-6.92814218 180.66199508 -6.74138244 177.01072783 -6.7502594 173.21199036 C-6.75323052 172.50156238 -6.75620164 171.79113439 -6.7592628 171.05917829 C-6.76793446 168.67866144 -6.76945673 166.29819497 -6.77095032 163.91766357 C-6.77557947 162.21092115 -6.78060426 160.50417976 -6.78599548 158.79743958 C-6.79910963 154.16112534 -6.80556219 149.52482557 -6.81000614 144.88849568 C-6.81293765 141.99252519 -6.81704255 139.09655864 -6.82151031 136.20059013 C-6.83518088 127.141302 -6.84485045 118.0820229 -6.84871221 109.02272516 C-6.85319601 98.56163463 -6.87076071 88.10067456 -6.8997128 77.6396237 C-6.92131337 69.55460341 -6.93141557 61.46961987 -6.93275332 53.38457102 C-6.93380226 48.55484816 -6.9397291 43.72524801 -6.95757294 38.8955555 C-6.97402618 34.35406884 -6.97622254 29.81279753 -6.96743393 25.27129173 C-6.96666215 23.60438588 -6.97102473 21.93746857 -6.98089218 20.27059174 C-6.99357242 17.99518509 -6.98775688 15.72054573 -6.97731018 13.44514465 C-6.97877674 12.17181306 -6.9802433 10.89848146 -6.9817543 9.58656406 C-6.46505728 4.97233077 -4.97179185 0.50497827 0 0 Z " fill="#EE4323" transform="translate(44.60981750488281,152.73492431640625)"></path><path d="M0 0 C6.48726193 -0.15602338 12.73113176 1.07930232 19.04729557 2.42906189 C20.10546986 2.64696884 21.16364414 2.86487579 22.25388432 3.08938599 C25.72128482 3.80652057 29.18535547 4.5384215 32.64934635 5.27183533 C35.06918541 5.77836293 37.48911899 6.28443917 39.90914249 6.79008484 C44.96561833 7.84923819 50.02038317 8.91614718 55.07415104 9.98814392 C61.55378971 11.36159272 68.03799504 12.71197118 74.52374935 14.05620193 C79.51532515 15.09401445 84.5038941 16.14573012 89.49169636 17.2015152 C91.88213799 17.70539537 94.27358877 18.20451234 96.66603565 18.69878387 C100.00338877 19.39007217 103.33613055 20.10039701 106.66838932 20.81578064 C107.65752827 21.01646652 108.64666721 21.2171524 109.66578007 21.42391968 C118.17357974 23.28835147 118.17357974 23.28835147 120.96965885 27.38121033 C121.61949455 31.93459393 120.72282428 34.50746978 118.25090885 38.30308533 C117.65600651 39.23354675 117.06110416 40.16400818 116.44817448 41.12266541 C115.79526432 42.11548523 115.14235416 43.10830505 114.46965885 44.13121033 C113.09345821 46.27497129 111.71850222 48.41953168 110.34465885 50.56480408 C109.98770939 51.11822983 109.63075993 51.67165558 109.26299381 52.24185181 C105.23097739 58.49731408 101.35212139 64.84476378 97.46965885 71.19371033 C81.69115517 96.9579104 81.69115517 96.9579104 77.96965885 99.38121033 C68.09996891 99.15802335 58.66649004 96.13425663 49.19622135 93.57652283 C47.38174945 93.09146888 45.56716206 92.60684672 43.75246525 92.12263489 C39.96717355 91.11063465 36.18348001 90.09291049 32.4008112 89.07115173 C27.55509627 87.76282912 22.70544515 86.46982307 17.85447979 85.18112373 C14.11413938 84.18552667 10.3761065 83.18148339 6.63870716 82.17490768 C4.85087125 81.69457333 3.06230121 81.21696274 1.27299213 80.74214554 C-1.22295621 80.07854538 -3.71554011 79.4035299 -6.20758724 78.72544861 C-6.94425625 78.53208923 -7.68092525 78.33872986 -8.43991756 78.13951111 C-12.15942477 77.11384415 -15.31025744 76.20018408 -18.03034115 73.38121033 C-18.88129172 65.628434 -16.98049094 58.31542969 -15.2920599 50.77183533 C-15.01062634 49.48686157 -14.72919277 48.20188782 -14.43923092 46.87797546 C-13.84590447 44.17372277 -13.2458883 41.47106905 -12.64093685 38.76939392 C-11.86839149 35.31682032 -11.11259503 31.8608313 -10.36170387 28.40349197 C-9.63902228 25.08679659 -8.90245875 21.77323447 -8.1670599 18.45933533 C-7.89818462 17.22282227 -7.62930935 15.9863092 -7.35228634 14.71232605 C-7.09224316 13.56052856 -6.83219997 12.40873108 -6.5642767 11.22203064 C-6.33999493 10.21215088 -6.11571316 9.20227112 -5.88463497 8.16178894 C-3.58377184 0.67287748 -3.58377184 0.67287748 0 0 Z " fill="#EE4323" transform="translate(174.03034114837646,29.618789672851563)"></path><path d="M0 0 C25 0 25 0 30.3359375 4.43359375 C31.97412109 7.31762695 31.97412109 7.31762695 33.375 10.4375 C34.5202245 12.54460185 35.66606382 14.65136965 36.8125 16.7578125 C37.34101562 17.81000977 37.86953125 18.86220703 38.4140625 19.94628906 C40.75335251 24.45057469 43.5436675 28.60726132 46.375 32.8125 C50.78128513 39.56257025 50.78128513 39.56257025 52 42 C52.33 28.14 52.66 14.28 53 0 C60.92 0 68.84 0 77 0 C77 27.06 77 54.12 77 82 C52 82 52 82 46.6640625 77.56640625 C45.02563477 74.68188477 45.02563477 74.68188477 43.625 71.5625 C42.48106614 69.4580085 41.33652883 67.35384492 40.19140625 65.25 C39.66305176 64.198125 39.13469727 63.14625 38.59033203 62.0625 C36.22880862 57.51491791 33.41488171 53.31235421 30.5625 49.0625 C29.66510534 47.6802402 28.77024888 46.29632639 27.87890625 44.91015625 C27.25886719 43.94980469 26.63882813 42.98945312 26 42 C24.94633587 46.36839401 24.78459113 50.67389846 24.68359375 55.14453125 C24.66281265 55.91431808 24.64203156 56.68410492 24.62062073 57.47721863 C24.55553951 59.92222667 24.49643409 62.36733683 24.4375 64.8125 C24.39427532 66.47592177 24.35065979 68.13933344 24.30664062 69.80273438 C24.19916952 73.86838671 24.09978915 77.93412289 24 82 C16.08 82 8.16 82 0 82 C0 54.94 0 27.88 0 0 Z " fill="#293033" transform="translate(649,70)"></path><path d="M0 0 C24 0 24 0 28.875 4.5 C29.97095384 6.63971939 31.00780268 8.81023783 32 11 C33.17109884 12.96866197 34.40422365 14.888364 35.64697266 16.8125 C36.86435878 18.6991491 38.04386393 20.6038341 39.21484375 22.51953125 C43.07200635 28.72453195 47.04914729 34.85422911 51 41 C51.33 27.47 51.66 13.94 52 0 C59.92 0 67.84 0 76 0 C76 27.06 76 54.12 76 82 C67.75 82 59.5 82 51 82 C43.81715109 73.00400476 43.81715109 73.00400476 42.21484375 68.97265625 C40.16660062 64.20140046 37.60200013 60.11350599 34.625 55.875 C31.29158142 50.98503115 28.14042652 46.02468244 25 41 C24.67 54.53 24.34 68.06 24 82 C16.08 82 8.16 82 0 82 C0 54.94 0 27.88 0 0 Z " fill="#293033" transform="translate(992,70)"></path><path d="M0 0 C1.31935547 -0.01224609 2.63871094 -0.02449219 3.99804688 -0.03710938 C28.69323088 -0.07380356 28.69323088 -0.07380356 36.96484375 7.60546875 C42.62954293 13.99262232 42.97554069 20.28915348 42.7421875 28.5078125 C42.35707648 33.15876868 41.67926149 36.72309005 38.4375 40.1875 C35.88439862 41.88794348 33.31161407 43.12714724 30.4375 44.1875 C31.489375 44.8475 32.54125 45.5075 33.625 46.1875 C39.44300005 51.14749196 40.61098121 59.07693952 42.4375 66.1875 C42.75847656 67.36570312 43.07945312 68.54390625 43.41015625 69.7578125 C44.54964522 74.07197074 45.4375 77.70379821 45.4375 82.1875 C36.5275 82.1875 27.6175 82.1875 18.4375 82.1875 C17.05071921 78.72054803 16.01304853 75.81195141 15.18359375 72.24609375 C14.86165039 70.87614258 14.86165039 70.87614258 14.53320312 69.47851562 C14.20739258 68.06602539 14.20739258 68.06602539 13.875 66.625 C13.43629554 64.74867509 12.99749704 62.87237216 12.55859375 60.99609375 C12.27133423 59.75557251 12.27133423 59.75557251 11.97827148 58.48999023 C11.48378721 56.38458113 10.96203129 54.28562515 10.4375 52.1875 C6.4775 52.1875 2.5175 52.1875 -1.5625 52.1875 C-1.5625 62.0875 -1.5625 71.9875 -1.5625 82.1875 C-10.4725 82.1875 -19.3825 82.1875 -28.5625 82.1875 C-28.5625 55.4575 -28.5625 28.7275 -28.5625 1.1875 C-18.92698516 0.44630655 -9.62388334 0.00471528 0 0 Z M-1.5625 17.1875 C-1.5625 23.1275 -1.5625 29.0675 -1.5625 35.1875 C0.685625 35.22875 2.93375 35.27 5.25 35.3125 C7.14685547 35.34730469 7.14685547 35.34730469 9.08203125 35.3828125 C12.5713024 35.46331918 12.5713024 35.46331918 15.4375 33.1875 C16.97534153 28.5739754 17.18491859 24.75028431 15.0625 20.3125 C13.60989958 18.09085175 13.60989958 18.09085175 11.4375 17.1875 C7.10146021 17.0481671 2.77669329 17.14495889 -1.5625 17.1875 Z " fill="#293033" transform="translate(446.5625,189.8125)"></path><path d="M0 0 C8.0908639 7.92230423 10.70639373 17.15785444 10.82958984 28.3112793 C10.8239502 29.19855713 10.81831055 30.08583496 10.8125 31 C10.80686035 31.92659424 10.8012207 32.85318848 10.79541016 33.80786133 C10.57805605 46.10343272 7.96738146 56.36073303 -0.28125 65.78515625 C-9.23202965 74.42412596 -20.4816162 75.8342129 -32.5 75.75 C-44.63057523 75.17468513 -55.26987172 72.48374895 -64 63.625 C-72.70020162 52.71809443 -73.074494 38.44458626 -72.28125 25.05859375 C-71.08940667 15.35194662 -67.79583483 7.00271561 -60.51953125 0.28125 C-44.07464775 -12.18759784 -16.06068713 -13.61871131 0 0 Z M-39.5 10.75 C-45.68358692 19.91876682 -44.73799216 36.35529804 -42.8125 47 C-41.27774398 51.38501721 -39.80278448 53.52777124 -36.5 56.75 C-31.63977939 58.37007354 -27.96658417 58.39868146 -23.25 56.3125 C-18.30223864 51.70208601 -17.36212314 45.71990424 -17.1015625 39.12109375 C-17.09369823 37.14322937 -17.10171722 35.16524297 -17.125 33.1875 C-17.11339844 32.19814453 -17.10179687 31.20878906 -17.08984375 30.18945312 C-17.11824091 23.05703335 -17.73284663 16.83339947 -22.6875 11.3125 C-28.13665852 8.28518971 -33.88114135 7.74456398 -39.5 10.75 Z " fill="#293033" transform="translate(967.5,78.25)"></path><path d="M0 0 C6.7372017 4.41619181 10.38084488 10.980149 13.03515625 18.4375 C16.21907068 34.75095848 15.08767168 51.08641232 6.63671875 65.6171875 C1.41031681 72.77105682 -8.00539963 76.69561118 -16.40234375 78.375 C-30.64155253 79.75298795 -44.03249378 78.72421489 -56.27734375 70.75 C-63.39691648 64.77212452 -66.68482534 56.74942674 -68.27734375 47.75 C-69.33708453 33.49539023 -69.7213583 18.02115969 -60.0390625 6.4609375 C-44.91321829 -8.22890677 -18.02425591 -9.8932451 0 0 Z M-36.27734375 13.75 C-38.89041181 19.32577199 -39.84306502 24.3259016 -40.08984375 30.4375 C-40.12553467 31.21770508 -40.16122559 31.99791016 -40.19799805 32.80175781 C-40.49785305 41.80294374 -40.6823698 51.77982459 -34.27734375 58.75 C-31.3121032 61.07983186 -28.03770996 61.23326585 -24.30859375 61.12890625 C-20.62486576 60.4417493 -18.73796987 58.44497146 -16.27734375 55.75 C-11.44022548 45.1544076 -12.02400095 30.76606581 -15.27734375 19.75 C-16.88492644 15.77334809 -17.86727534 14.96621789 -21.71484375 12.9375 C-27.03938986 11.1626513 -31.16482425 11.5190824 -36.27734375 13.75 Z " fill="#293033" transform="translate(572.27734375,195.25)"></path><path d="M0 0 C6.37759331 4.54013286 11.45222852 9.4951514 14 17 C14.35320312 17.99515625 14.70640625 18.9903125 15.0703125 20.015625 C18.90172232 33.80650259 17.05839999 50.91395017 10.71484375 63.5625 C5.87703052 71.75578815 -1.95768066 76.48616018 -11 79 C-24.55415073 81.86722419 -39.11345151 80.35330859 -51.30078125 73.7578125 C-59.36493909 68.50619017 -63.4142278 60.92594366 -65.53271484 51.67333984 C-66.33656005 47.07453891 -66.22622047 42.4703159 -66.25 37.8125 C-66.270625 36.82185547 -66.29125 35.83121094 -66.3125 34.81054688 C-66.36833048 24.16786255 -63.95430677 15.21585902 -57 7 C-43.62997785 -5.90997837 -16.09144206 -9.33453793 0 0 Z M-34 15 C-40.24262844 25.19629311 -38.95011973 40.43041173 -36.625 51.65234375 C-35.51996255 55.80314069 -34.07731357 58.13216407 -30.75 60.8125 C-26.36339662 62.7067151 -22.77735071 62.6613398 -18.3125 61 C-13.54462577 56.8764331 -11.58676602 51.346896 -11.08984375 45.1171875 C-11.04537109 44.06917969 -11.04537109 44.06917969 -11 43 C-10.96003906 42.23945313 -10.92007813 41.47890625 -10.87890625 40.6953125 C-10.67293672 33.11078762 -10.4697884 23.61874766 -15.3125 17.375 C-21.16418992 12.20373914 -26.82567975 11.99982971 -34 15 Z " fill="#293033" transform="translate(754,194)"></path><path d="M0 0 C8.04375 -0.061875 16.0875 -0.12375 24.375 -0.1875 C26.89431152 -0.21481201 29.41362305 -0.24212402 32.00927734 -0.27026367 C34.03482587 -0.27903604 36.06037974 -0.2866782 38.0859375 -0.29296875 C39.11436768 -0.30831665 40.14279785 -0.32366455 41.20239258 -0.33947754 C48.28616763 -0.34201047 56.44316572 -0.1953799 61.97494507 4.77424622 C66.13331429 9.45831689 67.16993194 12.42462343 67.25 18.75 C67.27578125 19.96171875 67.3015625 21.1734375 67.328125 22.421875 C66.8527821 27.60537619 65.29180302 30.83422654 61.4375 34.3125 C59 36 59 36 57 37 C57.60328125 37.3403125 58.2065625 37.680625 58.828125 38.03125 C64.48195165 41.46002229 68.37847924 44.40653147 70 51 C70.98412574 59.18378244 70.26649913 65.90398235 66 73 C65.13375 74.4540625 65.13375 74.4540625 64.25 75.9375 C57.06151312 82.52694631 42.56663845 81.14983701 33.3984375 81.09765625 C32.54354736 81.09664917 31.68865723 81.09564209 30.80786133 81.09460449 C27.66356026 81.08943616 24.51927855 81.0754758 21.375 81.0625 C14.32125 81.041875 7.2675 81.02125 0 81 C0 54.27 0 27.54 0 0 Z M26 16 C26 21.28 26 26.56 26 32 C27.7325 32.04125 29.465 32.0825 31.25 32.125 C32.22453125 32.14820313 33.1990625 32.17140625 34.203125 32.1953125 C37.05069951 31.99645953 38.63037132 31.55438946 41 30 C42.16343227 27.67313547 42.19895988 26.15278587 42.25 23.5625 C42.27578125 22.78003906 42.3015625 21.99757812 42.328125 21.19140625 C42.14288763 18.97024695 42.14288763 18.97024695 40.90234375 17.2265625 C36.76161691 14.55677148 30.67488836 15.86114193 26 16 Z M26 45 C26 51.6 26 58.2 26 65 C28.041875 65.04125 30.08375 65.0825 32.1875 65.125 C33.33605469 65.14820313 34.48460937 65.17140625 35.66796875 65.1953125 C38.91740372 65.00484152 41.08660521 64.39360127 44 63 C44.78906187 58.18957461 45.37054066 54.22060453 43.9375 49.5 C41.41820201 46.24929292 40.04556605 45.73555746 36 45 C32.7 45 29.4 45 26 45 Z " fill="#293033" transform="translate(604,191)"></path><path d="M0 0 C0.02707139 2.24993359 0.04642829 4.49996095 0.0625 6.75 C0.07410156 8.00296875 0.08570313 9.2559375 0.09765625 10.546875 C0.01898651 13.32863714 -0.27135941 15.3678174 -1 18 C-1.5983667 17.99476318 -2.1967334 17.98952637 -2.81323242 17.98413086 C-20.97489215 16.35887581 -20.97489215 16.35887581 -37.7578125 20.2265625 C-42.30574476 26.71952239 -41.66702868 37.84720342 -40.6875 45.4140625 C-39.76105388 50.36062303 -38.32902555 54.10028436 -35 58 C-31.00077246 60.26983185 -27.77949943 60.31721437 -23 61 C-22.67 52.09 -22.34 43.18 -22 34 C-13.42 34 -4.84 34 4 34 C4 47.53 4 61.06 4 75 C-12.07595796 81.88969627 -32.49481534 84.49769747 -49.265625 78.328125 C-58.09523132 74.03945907 -64.45235251 67.76481913 -67.75 58.5 C-72.21219267 43.44955354 -71.08977261 27.6178589 -63.765625 13.76953125 C-58.75187199 5.90503814 -51.24804512 1.88137466 -42.6875 -1.1875 C-28.55264699 -4.30195914 -14.08129811 -2.7469199 0 0 Z " fill="#293033" transform="translate(809,72)"></path><path d="M0 0 C11.55 0 23.1 0 35 0 C39.99587702 14.6966091 44.6107543 29.50110228 49.14306641 44.34570312 C50.17998419 47.74087589 51.2242647 51.13373919 52.27014732 54.52615929 C53.27617252 57.79458181 54.2742971 61.06540383 55.2734375 64.3359375 C55.6483432 65.54937836 56.0232489 66.76281921 56.40951538 68.01303101 C56.92102646 69.69726669 56.92102646 69.69726669 57.44287109 71.41552734 C57.74454193 72.40048187 58.04621277 73.3854364 58.35702515 74.40023804 C59 77 59 77 59 81 C50.09 81 41.18 81 32 81 C30.68 75.39 29.36 69.78 28 64 C17.11 63.505 17.11 63.505 6 63 C4.68 68.94 3.36 74.88 2 81 C-6.91 81 -15.82 81 -25 81 C-23.77328864 75.47979888 -22.60563724 70.43186202 -20.87695312 65.12255859 C-20.67504868 64.49850632 -20.47314423 63.87445404 -20.26512146 63.23149109 C-19.60767335 61.20253565 -18.94447778 59.17551018 -18.28125 57.1484375 C-17.81767716 55.72088297 -17.35450893 54.29319699 -16.89172363 52.86538696 C-15.67953544 49.1285922 -14.46262025 45.39335524 -13.2444458 41.6585083 C-11.29401155 35.67575874 -9.35100379 29.69059285 -7.40769958 23.70552444 C-6.73222438 21.62739208 -6.05482267 19.54989592 -5.3770752 17.47250366 C-4.95903123 16.18789779 -4.54102009 14.90328124 -4.12304688 13.61865234 C-3.76045776 12.50662445 -3.39786865 11.39459656 -3.02429199 10.24887085 C-1.95327039 6.85178206 -0.97853566 3.42487481 0 0 Z M17 20 C15.13746849 25.40134139 13.42227408 30.83010216 11.8125 36.3125 C11.46832031 37.48425781 11.12414062 38.65601563 10.76953125 39.86328125 C9.84115695 43.10917783 9.84115695 43.10917783 10 47 C14.95 47 19.9 47 25 47 C22.69 38.09 20.38 29.18 18 20 C17.67 20 17.34 20 17 20 Z " fill="#293033" transform="translate(1010,191)"></path><path d="M0 0 C0.73226807 0.00008057 1.46453613 0.00016113 2.21899414 0.00024414 C18.90585666 0.17167833 18.90585666 0.17167833 24.9375 3.1875 C24.82217064 5.06311967 24.6947641 6.93799841 24.5625 8.8125 C24.49289062 9.85664062 24.42328125 10.90078125 24.3515625 11.9765625 C23.9375 15.1875 23.9375 15.1875 21.9375 21.1875 C8.0775 20.6925 8.0775 20.6925 -6.0625 20.1875 C-7.14334521 23.82369656 -7.14334521 23.82369656 -7.0625 26.1875 C-5.9075 26.55875 -4.7525 26.93 -3.5625 27.3125 C-1.72818023 27.93459894 0.10497034 28.5601475 1.9375 29.1875 C2.55383301 29.39149414 3.17016602 29.59548828 3.80517578 29.80566406 C13.68163709 33.10021561 22.2093467 36.05408651 27.875 45.375 C31.19549999 54.16455879 30.58942971 62.54361797 26.9375 71.1875 C23.25207684 77.70679021 17.20205791 80.19316413 10.359375 82.27734375 C5.25647546 83.49797481 0.22545086 83.52799739 -5 83.5 C-6.00039307 83.49871094 -7.00078613 83.49742187 -8.03149414 83.49609375 C-16.93675791 83.38249715 -25.39181006 82.14276968 -34.0625 80.1875 C-33.75362547 77.74949034 -33.44055338 75.31214633 -33.125 72.875 C-33.03798828 72.18470703 -32.95097656 71.49441406 -32.86132812 70.78320312 C-32.47039865 67.78607712 -32.0209996 65.06299881 -31.0625 62.1875 C-26.46026318 62.11327037 -22.0089209 62.14291798 -17.4375 62.6875 C-10.6637807 63.44847163 -3.86800742 63.26916609 2.9375 63.1875 C2.9375 61.5375 2.9375 59.8875 2.9375 58.1875 C-1.59293088 55.73351661 -6.08566836 53.79745522 -10.94458008 52.11572266 C-19.51882309 49.11696147 -26.04822471 46.04923434 -31 38.0625 C-34.26668549 29.22323337 -33.75346949 21.40488085 -30.25 12.70703125 C-28.24900453 8.4614981 -26.4191821 5.3103636 -21.98828125 3.19921875 C-14.83742499 0.6375368 -7.5613966 -0.00786826 0 0 Z " fill="#293033" transform="translate(493.0625,69.8125)"></path><path d="M0 0 C1.02416016 -0.00322266 2.04832031 -0.00644531 3.10351562 -0.00976562 C9.3425227 0.03408682 14.90038015 0.73568722 20.9375 2.3125 C20.96485618 4.02074133 20.98405506 5.72911405 21 7.4375 C21.01160156 8.38882813 21.02320313 9.34015625 21.03515625 10.3203125 C20.9346612 13.39948095 20.46962231 16.28179647 19.9375 19.3125 C19.04442139 19.34690186 18.15134277 19.38130371 17.23120117 19.41674805 C13.91433578 19.55600328 10.59997964 19.71681926 7.28491211 19.89233398 C5.85074744 19.96382337 4.41612742 20.02672097 2.98120117 20.08081055 C0.9166528 20.1601338 -1.14427865 20.27037622 -3.20703125 20.38671875 C-4.44815674 20.44432373 -5.68928223 20.50192871 -6.96801758 20.5612793 C-10.20949468 21.01648419 -10.20949468 21.01648419 -11.9284668 23.62036133 C-14.24552137 29.12093415 -14.31006131 34.09057928 -14.375 40 C-14.41850586 41.29067383 -14.41850586 41.29067383 -14.46289062 42.60742188 C-14.5231948 48.76308617 -13.81515638 54.25098047 -10.0625 59.3125 C-4.44324521 63.53200348 3.2254384 62.62975634 9.875 62.4375 C11.94653388 62.39436947 14.01815273 62.35508588 16.08984375 62.3203125 C16.99726318 62.29598145 17.90468262 62.27165039 18.83959961 62.24658203 C20.9375 62.3125 20.9375 62.3125 21.9375 63.3125 C22.17428716 66.00485776 22.35948025 68.67748156 22.5 71.375 C22.56477539 72.51291992 22.56477539 72.51291992 22.63085938 73.67382812 C22.73723633 75.55315438 22.83789934 77.43280244 22.9375 79.3125 C10.30186446 85.12489235 -7.66761095 85.79640601 -21 81.75 C-30.46258233 77.7620982 -36.81408263 71.67294745 -41.0625 62.3125 C-45.71545594 48.36995834 -45.21530478 31.99565093 -39.2421875 18.5234375 C-34.55491761 9.73868665 -26.77787358 4.80065337 -17.48828125 1.66015625 C-11.63982055 -0.01781437 -6.04848183 -0.09552245 0 0 Z " fill="#293033" transform="translate(954.0625,189.6875)"></path><path d="M0 0 C23.43 0 46.86 0 71 0 C71 6.27 71 12.54 71 19 C63.74 19 56.48 19 49 19 C49 39.79 49 60.58 49 82 C40.42 82 31.84 82 23 82 C23 61.21 23 40.42 23 19 C15.41 19 7.82 19 0 19 C0 12.73 0 6.46 0 0 Z " fill="#293033" transform="translate(818,70)"></path><path d="M0 0 C23.43 0 46.86 0 71 0 C71 5.94 71 11.88 71 18 C63.41 18 55.82 18 48 18 C48 38.79 48 59.58 48 81 C39.42 81 30.84 81 22 81 C22 60.21 22 39.42 22 18 C14.74 18 7.48 18 0 18 C0 12.06 0 6.12 0 0 Z " fill="#293033" transform="translate(782,191)"></path><path d="M0 0 C8.58 0 17.16 0 26 0 C26 20.46 26 40.92 26 62 C36.89 62 47.78 62 59 62 C59 68.6 59 75.2 59 82 C39.53 82 20.06 82 0 82 C0 54.94 0 27.88 0 0 Z " fill="#293033" transform="translate(536,70)"></path><path d="M0 0 C8.58 0 17.16 0 26 0 C26 27.06 26 54.12 26 82 C17.42 82 8.84 82 0 82 C0 54.94 0 27.88 0 0 Z " fill="#293033" transform="translate(607,70)"></path><path d="M0 0 C8.58 0 17.16 0 26 0 C26 27.06 26 54.12 26 82 C17.42 82 8.84 82 0 82 C0 54.94 0 27.88 0 0 Z " fill="#293033" transform="translate(419,70)"></path><path d="M0 0 C8.58 0 17.16 0 26 0 C26 26.73 26 53.46 26 81 C17.42 81 8.84 81 0 81 C0 54.27 0 27.54 0 0 Z " fill="#293033" transform="translate(867,191)"></path><path d="M0 0 C17 0 17 0 22 3 C24.49040942 5.49040942 24.32391014 6.43154357 24.375 9.875 C24.31297163 13.45196934 24.25166161 14.64767375 22.125 17.625 C20 19 20 19 18 19 C18.42152344 19.74765625 18.84304688 20.4953125 19.27734375 21.265625 C19.82519531 22.25046875 20.37304688 23.2353125 20.9375 24.25 C21.48277344 25.22453125 22.02804687 26.1990625 22.58984375 27.203125 C23.76610835 29.53610409 24.52101691 31.45350762 25 34 C22.703125 33.875 22.703125 33.875 20 33 C18.296875 30.3125 18.296875 30.3125 16.75 27 C14.5304121 22.55862769 14.5304121 22.55862769 10.55078125 19.984375 C7.80288785 19.66080002 7.80288785 19.66080002 4 20 C4 24.62 4 29.24 4 34 C2.68 34 1.36 34 0 34 C0 22.78 0 11.56 0 0 Z M4 4 C4 8.29 4 12.58 4 17 C10.34911318 17.29303599 14.33974243 16.89034429 20 14 C20.42868461 9.43260405 20.42868461 9.43260405 18.90625 5.28125 C14.80648975 2.52567344 8.67824715 3.86104216 4 4 Z " fill="#000000" transform="translate(785,305)"></path><path d="M0 0 C2.84625 -0.0825 5.6925 -0.165 8.625 -0.25 C9.51010254 -0.28641602 10.39520508 -0.32283203 11.30712891 -0.36035156 C16.67850247 -0.43530658 19.79242217 0.34466676 24 4 C27.14660763 10.86532574 26.96404426 19.70174726 25.3125 27 C23.68209602 30.72663766 22.4915414 31.89427658 19 34 C15.70876013 34.4787258 12.50417565 34.37761874 9.1875 34.25 C6.155625 34.1675 3.12375 34.085 0 34 C0 22.78 0 11.56 0 0 Z M4 4 C4 12.91 4 21.82 4 31 C13.29092623 31.78306062 13.29092623 31.78306062 20 28 C23.26237019 22.93291439 22.48066183 16.78229008 22 11 C20.51369828 6.59377645 20.51369828 6.59377645 17 4 C12.71 4 8.42 4 4 4 Z " fill="#000000" transform="translate(1044,305)"></path><path d="M0 0 C2.84625 -0.0825 5.6925 -0.165 8.625 -0.25 C9.51010254 -0.28641602 10.39520508 -0.32283203 11.30712891 -0.36035156 C16.67850247 -0.43530658 19.79242217 0.34466676 24 4 C27.14660763 10.86532574 26.96404426 19.70174726 25.3125 27 C23.68209602 30.72663766 22.4915414 31.89427658 19 34 C15.70876013 34.4787258 12.50417565 34.37761874 9.1875 34.25 C6.155625 34.1675 3.12375 34.085 0 34 C0 22.78 0 11.56 0 0 Z M4 4 C4 12.91 4 21.82 4 31 C13.29092623 31.78306062 13.29092623 31.78306062 20 28 C23.26237019 22.93291439 22.48066183 16.78229008 22 11 C20.51369828 6.59377645 20.51369828 6.59377645 17 4 C12.71 4 8.42 4 4 4 Z " fill="#000000" transform="translate(532,305)"></path><path d="M0 0 C4.40528633 4.29515417 5.14896969 7.96590809 5.234375 14.01367188 C5.23953125 14.77228516 5.2446875 15.53089844 5.25 16.3125 C5.270625 17.05951172 5.29125 17.80652344 5.3125 18.57617188 C5.34678566 23.4575928 4.71020047 26.7777255 2 31 C-2.50390946 34.14226241 -6.67140231 34.76578649 -12 34 C-15.7775157 32.71707014 -17.47681595 31.81149451 -19.64453125 28.44921875 C-21.34444365 24.12350506 -21.44290349 20.53607527 -21.375 15.9375 C-21.38660156 15.14794922 -21.39820313 14.35839844 -21.41015625 13.54492188 C-21.3866046 8.86206962 -20.97319516 5.8258026 -18 2 C-12.62093305 -3.02046249 -6.54974214 -2.50971428 0 0 Z M-16 6 C-17.62169093 9.24338187 -17.30955934 12.75193321 -17.375 16.3125 C-17.41238281 17.07240234 -17.44976563 17.83230469 -17.48828125 18.61523438 C-17.55442604 22.84482654 -17.36318364 24.51867228 -14.73046875 28.0078125 C-10.63913611 30.99290498 -8.96082949 30.70868993 -4 30 C-1.56880377 28.12984906 -0.35930827 26.71861655 1 24 C1.17741233 21.37953265 1.27747251 18.80989117 1.3125 16.1875 C1.35600586 15.11918945 1.35600586 15.11918945 1.40039062 14.02929688 C1.44530392 10.29458362 1.14178313 8.22071395 -0.89453125 5.05078125 C-3.39844764 2.61190165 -4.34303932 2.07299563 -7.8125 1.6875 C-11.7307645 2.07164358 -13.21293267 3.29256317 -16 6 Z " fill="#000000" transform="translate(1008,306)"></path><path d="M0 0 C4.40528633 4.29515417 5.14896969 7.96590809 5.234375 14.01367188 C5.23953125 14.77228516 5.2446875 15.53089844 5.25 16.3125 C5.270625 17.05951172 5.29125 17.80652344 5.3125 18.57617188 C5.34678566 23.4575928 4.71020047 26.7777255 2 31 C-2.50390946 34.14226241 -6.67140231 34.76578649 -12 34 C-15.7775157 32.71707014 -17.47681595 31.81149451 -19.64453125 28.44921875 C-21.34444365 24.12350506 -21.44290349 20.53607527 -21.375 15.9375 C-21.38660156 15.14794922 -21.39820313 14.35839844 -21.41015625 13.54492188 C-21.3866046 8.86206962 -20.97319516 5.8258026 -18 2 C-12.62093305 -3.02046249 -6.54974214 -2.50971428 0 0 Z M-16 6 C-17.62169093 9.24338187 -17.30955934 12.75193321 -17.375 16.3125 C-17.41238281 17.07240234 -17.44976563 17.83230469 -17.48828125 18.61523438 C-17.55442604 22.84482654 -17.36318364 24.51867228 -14.73046875 28.0078125 C-10.63913611 30.99290498 -8.96082949 30.70868993 -4 30 C-1.56880377 28.12984906 -0.35930827 26.71861655 1 24 C1.17741233 21.37953265 1.27747251 18.80989117 1.3125 16.1875 C1.35600586 15.11918945 1.35600586 15.11918945 1.40039062 14.02929688 C1.44530392 10.29458362 1.14178313 8.22071395 -0.89453125 5.05078125 C-3.39844764 2.61190165 -4.34303932 2.07299563 -7.8125 1.6875 C-11.7307645 2.07164358 -13.21293267 3.29256317 -16 6 Z " fill="#000000" transform="translate(952,306)"></path><path d="M0 0 C4.40528633 4.29515417 5.14896969 7.96590809 5.234375 14.01367188 C5.23953125 14.77228516 5.2446875 15.53089844 5.25 16.3125 C5.270625 17.05951172 5.29125 17.80652344 5.3125 18.57617188 C5.34678566 23.4575928 4.71020047 26.7777255 2 31 C-2.50390946 34.14226241 -6.67140231 34.76578649 -12 34 C-15.7775157 32.71707014 -17.47681595 31.81149451 -19.64453125 28.44921875 C-21.34444365 24.12350506 -21.44290349 20.53607527 -21.375 15.9375 C-21.38660156 15.14794922 -21.39820313 14.35839844 -21.41015625 13.54492188 C-21.3866046 8.86206962 -20.97319516 5.8258026 -18 2 C-12.62093305 -3.02046249 -6.54974214 -2.50971428 0 0 Z M-16 6 C-17.62169093 9.24338187 -17.30955934 12.75193321 -17.375 16.3125 C-17.41238281 17.07240234 -17.44976563 17.83230469 -17.48828125 18.61523438 C-17.55442604 22.84482654 -17.36318364 24.51867228 -14.73046875 28.0078125 C-10.63913611 30.99290498 -8.96082949 30.70868993 -4 30 C-1.56880377 28.12984906 -0.35930827 26.71861655 1 24 C1.17741233 21.37953265 1.27747251 18.80989117 1.3125 16.1875 C1.35600586 15.11918945 1.35600586 15.11918945 1.40039062 14.02929688 C1.44530392 10.29458362 1.14178313 8.22071395 -0.89453125 5.05078125 C-3.39844764 2.61190165 -4.34303932 2.07299563 -7.8125 1.6875 C-11.7307645 2.07164358 -13.21293267 3.29256317 -16 6 Z " fill="#000000" transform="translate(749,306)"></path><path d="M0 0 C4.40528633 4.29515417 5.14896969 7.96590809 5.234375 14.01367188 C5.23953125 14.77228516 5.2446875 15.53089844 5.25 16.3125 C5.270625 17.05951172 5.29125 17.80652344 5.3125 18.57617188 C5.34678566 23.4575928 4.71020047 26.7777255 2 31 C-2.50390946 34.14226241 -6.67140231 34.76578649 -12 34 C-15.7775157 32.71707014 -17.47681595 31.81149451 -19.64453125 28.44921875 C-21.34444365 24.12350506 -21.44290349 20.53607527 -21.375 15.9375 C-21.38660156 15.14794922 -21.39820313 14.35839844 -21.41015625 13.54492188 C-21.3866046 8.86206962 -20.97319516 5.8258026 -18 2 C-12.62093305 -3.02046249 -6.54974214 -2.50971428 0 0 Z M-16 6 C-17.62169093 9.24338187 -17.30955934 12.75193321 -17.375 16.3125 C-17.41238281 17.07240234 -17.44976562 17.83230469 -17.48828125 18.61523438 C-17.55442604 22.84482654 -17.36318364 24.51867228 -14.73046875 28.0078125 C-10.63913611 30.99290498 -8.96082949 30.70868993 -4 30 C-1.56880377 28.12984906 -0.35930827 26.71861655 1 24 C1.17741233 21.37953265 1.27747251 18.80989117 1.3125 16.1875 C1.35600586 15.11918945 1.35600586 15.11918945 1.40039062 14.02929688 C1.44530392 10.29458362 1.14178313 8.22071395 -0.89453125 5.05078125 C-3.39844764 2.61190165 -4.34303932 2.07299563 -7.8125 1.6875 C-11.7307645 2.07164358 -13.21293267 3.29256317 -16 6 Z " fill="#000000" transform="translate(496,306)"></path><path d="M0 0 C1.66758806 2.43189925 2.17639102 4.27501918 2.5 7.1875 C1.18 7.1875 -0.14 7.1875 -1.5 7.1875 C-1.7475 6.56875 -1.995 5.95 -2.25 5.3125 C-3.77221172 2.72474008 -4.66777975 2.13157342 -7.5 1.1875 C-10.94291725 0.97231767 -14.26855708 0.87098622 -17.5 2.1875 C-18.83826135 6.20228404 -18.76263692 9.91988008 -18.8125 14.125 C-18.84150391 14.93646484 -18.87050781 15.74792969 -18.90039062 16.58398438 C-18.95529599 21.46801111 -18.95529599 21.46801111 -16.73046875 25.7265625 C-13.26751166 27.99476907 -10.49577121 27.83701837 -6.5 27.1875 C-4 26.35416667 -4 26.35416667 -2.5 24.1875 C-1.58597376 21.52421663 -1.04641185 18.96509358 -0.5 16.1875 C-3.8 16.1875 -7.1 16.1875 -10.5 16.1875 C-10.5 15.1975 -10.5 14.2075 -10.5 13.1875 C-6.21 13.1875 -1.92 13.1875 2.5 13.1875 C2.98648649 23.16047297 2.98648649 23.16047297 0.8125 27.75 C-2.82089151 31.57979105 -5.21189958 32.08526981 -10.4375 32.5 C-14.42820908 32.37199612 -17.17402933 31.50794466 -20.5 29.1875 C-23.74635624 24.15217785 -23.9605169 19.91639453 -23.875 14.125 C-23.88660156 13.33544922 -23.89820313 12.54589844 -23.91015625 11.73242188 C-23.8866046 7.04956962 -23.47319516 4.0133026 -20.5 0.1875 C-14.58740604 -5.33092103 -6.33150197 -4.59033893 0 0 Z " fill="#000000" transform="translate(898.5,307.8125)"></path><path d="M0 0 C7.26 0 14.52 0 22 0 C21.67 1.32 21.34 2.64 21 4 C15.39 4 9.78 4 4 4 C4 7.63 4 11.26 4 15 C9.61 15 15.22 15 21 15 C20.67 16.32 20.34 17.64 20 19 C14.72 19 9.44 19 4 19 C4 22.96 4 26.92 4 31 C9.94 31 15.88 31 22 31 C22 31.99 22 32.98 22 34 C14.74 34 7.48 34 0 34 C0 22.78 0 11.56 0 0 Z " fill="#000000" transform="translate(588,305)"></path><path d="M0 0 C1.97761923 3.04882965 2.22425149 5.72776942 2.5 9.3125 C0.6875 9.1875 0.6875 9.1875 -1.5 8.3125 C-1.891875 7.3225 -2.28375 6.3325 -2.6875 5.3125 C-4.1285677 2.18342301 -4.1285677 2.18342301 -6.546875 1.66015625 C-10.33691807 1.20807595 -13.88137503 0.90481512 -17.5 2.3125 C-18.83826135 6.32728404 -18.76263692 10.04488008 -18.8125 14.25 C-18.84150391 15.06146484 -18.87050781 15.87292969 -18.90039062 16.70898438 C-18.95529599 21.59301111 -18.95529599 21.59301111 -16.73046875 25.8515625 C-13.28362595 28.10921435 -10.48049447 27.9909005 -6.5 27.3125 C-3.68733027 25.87010527 -2.77315305 25.1091964 -1.75 22.125 C-1.6675 21.526875 -1.585 20.92875 -1.5 20.3125 C-0.18 20.3125 1.14 20.3125 2.5 20.3125 C2.13265306 26.67984694 2.13265306 26.67984694 -0.875 29.6875 C-5.31176415 32.43406829 -9.3835887 32.83576934 -14.5 32.3125 C-18.2775157 31.02957014 -19.97681595 30.12399451 -22.14453125 26.76171875 C-23.84444365 22.43600506 -23.94290349 18.84857527 -23.875 14.25 C-23.88660156 13.46044922 -23.89820313 12.67089844 -23.91015625 11.85742188 C-23.8866046 7.17456962 -23.47319516 4.1383026 -20.5 0.3125 C-14.5591658 -5.23227858 -6.46793095 -4.36585339 0 0 Z " fill="#000000" transform="translate(443.5,307.6875)"></path><path d="M0 0 C7.26 0 14.52 0 22 0 C21.67 1.32 21.34 2.64 21 4 C15.39 4 9.78 4 4 4 C4 7.96 4 11.92 4 16 C9.61 16 15.22 16 21 16 C21 16.99 21 17.98 21 19 C15.39 19 9.78 19 4 19 C4 23.95 4 28.9 4 34 C2.68 34 1.36 34 0 34 C0 22.78 0 11.56 0 0 Z " fill="#000000" transform="translate(678,305)"></path></svg>